<?xml version="1.0" encoding="utf-8"?>
<svg viewBox="-169.208 -199.798 736.686 848.346" xmlns="http://www.w3.org/2000/svg">
  <defs>
    <linearGradient id="gradient-8" gradientUnits="userSpaceOnUse" x1="200.201" y1="-175.357" x2="200.201" y2="633.343">
      <stop offset="0" style="stop-color: rgba(33, 143, 240, 1)"/>
      <stop offset="1" style="stop-color: rgba(11, 90, 160, 1)"/>
    </linearGradient>
  </defs>
  <title>tidypredict</title>
  <polyline class="st0" points="550.401 26.843 200.201 -175.357 200.201 -175.357 -149.999 26.843 -149.999 431.143 200.201 633.343 550.401 431.143 550.401 26.843" style="fill: url(#gradient-8);"/>
  <path class="st1" d="M 536.599 149.24 L 536.599 163.54 C 536.899 160.64 536.999 157.74 536.899 154.84 C 536.799 153.04 536.699 151.14 536.599 149.24" style="fill: rgb(255, 255, 255);"/>
  <path class="st4" d="M 138.499 224.04 L 138.499 224.04 L 138.499 224.04 Z" style="fill: none;"/>
  <path class="st4" d="M 137.699 224.94 L 137.699 224.94 L 137.699 224.94 L 137.699 224.94 Z" style="fill: none;"/>
  <path class="st4" d="M 134.799 230.74 L 134.799 230.74 L 134.799 230.74 Z" style="fill: none;"/>
  <path class="st4" d="M 14.599 223.74 L 14.599 223.74 Z" style="fill: none;"/>
  <path class="st4" d="M 134.999 229.94 L 134.999 229.94 L 134.999 229.94 Z" style="fill: none;"/>
  <path class="st4" d="M 246.999 218.34 L 246.999 218.34 Z" style="fill: none;"/>
  <path class="st4" d="M 21.899 219.54 L 21.899 219.54 Z" style="fill: none;"/>
  <path class="st4" d="M 251.099 218.34 L 251.099 218.34 Z" style="fill: none;"/>
  <path class="st4" d="M 241.999 219.54 L 241.999 219.54 L 241.999 219.54 L 241.999 219.54 Z" style="fill: none;"/>
  <path class="st4" d="M 28.999 218.84 L 28.999 218.84 Z" style="fill: none;"/>
  <path class="st4" d="M 25.499 218.84 L 25.499 218.84 Z" style="fill: none;"/>
  <path class="st4" d="M 23.599 219.14 L 23.599 219.14 Z" style="fill: none;"/>
  <path class="st4" d="M 30.399 218.94 L 30.399 218.94 Z" style="fill: none;"/>
  <path class="st4" d="M 147.099 259.54 L 147.099 259.54 Z" style="fill: none;"/>
  <path class="st4" d="M 143.199 258.54 L 143.199 258.54 L 143.199 258.54 L 143.199 258.54 Z" style="fill: none;"/>
  <path class="st4" d="M 53.599 250.24 L 53.599 250.24 Z" style="fill: none;"/>
  <path class="st4" d="M 139.799 257.04 L 139.799 257.04 L 139.799 257.04 Z" style="fill: none;"/>
  <path class="st4" d="M 53.699 253.34 L 53.699 253.34 Z" style="fill: none;"/>
  <path class="st4" d="M 190.599 225.34 L 190.599 225.34 Z" style="fill: none;"/>
  <path class="st4" d="M 150.099 218.94 L 150.099 218.94 Z" style="fill: none;"/>
  <path class="st4" d="M 147.399 219.24 L 147.399 219.24 Z" style="fill: none;"/>
  <path class="st4" d="M 148.799 219.04 L 148.799 219.04 Z" style="fill: none;"/>
  <path class="st4" d="M 146.199 219.64 L 146.199 219.64 L 146.199 219.64 L 146.199 219.64 Z" style="fill: none;"/>
  <path class="st4" d="M 237.099 222.74 L 237.099 222.74 L 237.099 222.74 L 237.099 222.74 Z" style="fill: none;"/>
  <path class="st4" d="M 232.899 230.54 C 232.899 230.54 232.899 230.54 232.899 230.54 C 232.899 230.54 232.899 230.54 232.899 230.54 Z" style="fill: none;"/>
  <path class="st4" d="M 211.899 220.54 L 211.899 220.54 L 211.899 220.54 Z" style="fill: none;"/>
  <path class="st4" d="M 214.499 220.14 L 214.499 220.14 Z" style="fill: none;"/>
  <path class="st4" d="M 210.799 220.84 L 210.799 220.84 L 210.799 220.84 Z" style="fill: none;"/>
  <path class="st4" d="M 209.599 221.34" style="fill: none;"/>
  <path class="st4" d="M 216.999 220.14 L 216.999 220.14 Z" style="fill: none;"/>
  <path class="st4" d="M 310.499 218.84 L 310.499 218.84 Z" style="fill: none;"/>
  <path class="st4" d="M 311.899 218.94 L 311.899 218.94 Z" style="fill: none;"/>
  <path class="st5" d="M 362.399 201.04 L 362.399 201.04 Z" style="fill: rgb(0, 62, 109);"/>
  <path class="st6" d="M 362.399 201.04 L 362.399 201.04 Z" style="opacity: 0.94; fill: rgb(255, 255, 255);"/>
  <path class="st5" d="M 362.299 201.64 L 362.299 201.64 Z" style="fill: rgb(0, 62, 109);"/>
  <path class="st6" d="M 362.299 201.64 L 362.299 201.64 Z" style="opacity: 0.94; fill: rgb(255, 255, 255);"/>
  <path class="st5" d="M 361.799 203.04 L 361.799 203.04 Z" style="fill: rgb(0, 62, 109);"/>
  <path class="st6" d="M 361.799 203.04 L 361.799 203.04 Z" style="opacity: 0.94; fill: rgb(255, 255, 255);"/>
  <path class="st5" d="M 361.499 203.44 L 361.499 203.44 Z" style="fill: rgb(0, 62, 109);"/>
  <path class="st6" d="M 361.499 203.44 L 361.499 203.44 Z" style="opacity: 0.94; fill: rgb(255, 255, 255);"/>
  <path class="st5" d="M 361.099 203.84 L 361.099 203.84 Z" style="fill: rgb(0, 62, 109);"/>
  <path class="st6" d="M 361.099 203.84 L 361.099 203.84 Z" style="opacity: 0.94; fill: rgb(255, 255, 255);"/>
  <path class="st5" d="M 359.699 204.74 L 359.699 204.74 Z" style="fill: rgb(0, 62, 109);"/>
  <path class="st6" d="M 359.699 204.74 L 359.699 204.74 Z" style="opacity: 0.94; fill: rgb(255, 255, 255);"/>
  <path class="st5" d="M 360.699 204.14 L 360.699 204.14 L 360.699 204.14 L 360.699 204.14 Z" style="fill: rgb(0, 62, 109);"/>
  <path class="st6" d="M 360.699 204.14 L 360.699 204.14 L 360.699 204.14 L 360.699 204.14 Z" style="opacity: 0.94; fill: rgb(255, 255, 255);"/>
  <path class="st5" d="M 358.599 205.24 L 358.599 205.24 Z" style="fill: rgb(0, 62, 109);"/>
  <path class="st6" d="M 358.599 205.24 L 358.599 205.24 Z" style="opacity: 0.94; fill: rgb(255, 255, 255);"/>
  <path class="st5" d="M 357.199 205.54 L 357.199 205.54 Z" style="fill: rgb(0, 62, 109);"/>
  <path class="st6" d="M 357.199 205.54 L 357.199 205.54 Z" style="opacity: 0.94; fill: rgb(255, 255, 255);"/>
  <path class="st5" d="M -18.401 205.54 L -18.401 205.54 Z" style="fill: rgb(0, 62, 109);"/>
  <path class="st6" d="M -18.401 205.54 L -18.401 205.54 Z" style="opacity: 0.94; fill: rgb(255, 255, 255);"/>
  <path class="st5" d="M 123.899 218.44 L 123.899 218.44 Z" style="fill: rgb(0, 62, 109);"/>
  <path class="st6" d="M 123.899 218.44 L 123.899 218.44 Z" style="opacity: 0.94; fill: rgb(255, 255, 255);"/>
  <path class="st5" d="M 141.599 616.24 L 198.499 649.04 L 255.399 616.24 L 536.699 453.84 L 565.999 436.94 L 565.999 12.64 L 536.699 -4.26 L 258.799 -164.66 L 198.499 -199.46 L 138.199 -164.66 L -139.601 -4.26 L -168.901 12.64 L -168.901 436.84 L -139.601 453.74 L 141.599 616.24 Z M -139.601 30.54 L -89.401 1.54 L 198.499 -164.66 L 198.499 -164.66 L 487.099 1.94 L 536.599 30.54 L 536.599 421.04 L 198.499 616.24 L -139.601 421.04 L -139.601 30.54 Z" style="fill: rgb(0, 62, 109);"/>
  <path fill="#fff" d="M 308.068 58.725 L 229.052 106.593 L 320.2 158.397 L 320.2 294.462 L 197.905 362.659 L 77.577 294.462 L 77.577 188.888 L -1.44 148.561 L -1.44 341.675 L 194.954 457.085 L 398.56 341.675 L 398.56 110.856 L 308.068 58.725 Z M 271.347 39.708 L 194.954 -4.554 L 115.282 44.954 L 192.659 87.577 Z"/>
  <text transform="matrix(0.867107, -0.498121, 0.498121, 0.867107, -262.750305, 269.919708)" style="fill: rgb(255, 255, 255); font-size: 24px; white-space: pre;" x="288.263" y="520.863">https://rinterface.com</text>
</svg>